<svg width="298" height="289" viewBox="0 0 298 289" fill="none" xmlns="http://www.w3.org/2000/svg">
<path d="M260.17 136.074C260.778 133.825 263.088 132.488 265.397 133.096C267.645 133.704 268.982 136.013 268.375 138.322L261.933 161.78C261.021 165.184 256.646 165.974 254.519 163.3L239.386 144.217C237.928 142.394 238.232 139.72 240.055 138.261C241.878 136.803 244.552 137.107 246.011 138.93L250.751 144.886C243.823 116.262 225.287 92.4392 199.884 78.3401C197.818 77.1854 197.089 74.633 198.244 72.5667C199.398 70.5005 201.951 69.7712 204.017 70.9259C231.061 85.9366 250.872 111.157 258.651 141.543L260.17 136.074Z" fill="#86A9C5"/>
<path fill-rule="evenodd" clip-rule="evenodd" d="M148.046 93.4116C132.913 93.1077 118.875 85.2681 110.549 72.4452C104.229 62.6608 101.677 50.5064 104.29 38.2304C104.29 38.1734 104.303 38.1031 104.317 38.032L104.32 38.0177C104.335 37.9418 104.351 37.8658 104.351 37.805C107.085 25.529 114.439 15.5624 124.223 9.24208C134.068 2.92177 146.344 0.308571 158.681 2.98255C171.018 5.65652 181.106 13.0707 187.487 22.9158C193.807 32.7609 196.42 45.0369 193.746 57.3737C189.067 78.9478 169.741 93.837 148.046 93.4116ZM132.67 59.0145C126.836 60.2907 121.61 63.2686 117.538 67.5226C106.599 50.2633 111.704 27.3522 128.842 16.2917C146.04 5.17035 169.195 10.1537 180.316 27.413C188.034 39.4459 188.277 55.1859 180.498 67.5226C176.426 63.2686 171.139 60.2907 165.366 59.0145C175.15 49.7771 175.332 34.341 165.852 24.8605C156.554 15.5624 141.482 15.5624 132.184 24.8605C122.704 34.341 122.947 49.7771 132.67 59.0145ZM159.046 66.8541C165.305 66.8541 171.139 69.5889 175.15 74.2076C160.808 88.3067 137.532 88.6106 122.947 74.2076C126.958 69.5889 132.792 66.8541 139.051 66.8541H159.046ZM138.201 52.5727C128.599 42.9707 135.405 26.4406 149.018 26.4406C157.465 26.4406 164.333 33.3079 164.333 41.7552C164.333 55.3682 147.803 62.1747 138.201 52.5727Z" fill="#0985CE"/>
<path d="M118.632 280.651C120.273 282.352 120.273 285.026 118.571 286.667C116.93 288.308 114.196 288.308 112.555 286.606L95.4778 269.286C93.0469 266.795 94.5055 262.601 97.9087 262.115L121.975 258.53C124.284 258.165 126.472 259.806 126.776 262.115C127.14 264.425 125.499 266.612 123.19 266.916L115.654 268.01C144.703 276.579 176.305 271.96 201.768 255.43C203.713 254.154 206.387 254.701 207.663 256.646C208.94 258.59 208.393 261.264 206.387 262.541C179.343 280.104 145.736 285.269 114.682 276.579L118.632 280.651Z" fill="#86A9C5"/>
<path d="M45.4623 163.847C45.3408 166.217 43.3353 167.979 41.0259 167.858C38.7166 167.736 36.8934 165.73 37.015 163.421C38.4735 135.223 50.7495 108.605 70.7435 89.036L65.274 90.4945C63.0255 91.1022 60.7161 89.7045 60.1084 87.4559C59.5007 85.2073 60.8985 82.898 63.147 82.2903L86.6659 76.1523C90.0083 75.3015 92.9254 78.5832 91.6492 81.8041L82.7157 104.411C81.8649 106.599 79.434 107.693 77.2462 106.842C75.0584 105.991 73.9645 103.5 74.8153 101.373L77.6108 94.2016C58.5283 112.312 46.9208 137.289 45.4623 163.847Z" fill="#86A9C5"/>
<path fill-rule="evenodd" clip-rule="evenodd" d="M150.112 110.853H204.321C211.127 110.853 216.718 116.444 216.718 123.251V166.156C216.718 172.962 211.127 178.553 204.321 178.553H199.52V195.327C199.52 199.094 194.962 201.039 192.288 198.365L172.537 178.614H169.316V184.327C169.316 191.133 163.725 196.724 156.919 196.724H134.433L114.682 216.475C112.008 219.149 107.45 217.205 107.45 213.437V196.664H102.649C95.8425 196.664 90.2514 191.072 90.2514 184.266V141.361C90.2514 134.554 95.8425 128.963 102.649 128.963H137.715V123.251C137.715 116.444 143.245 110.853 150.112 110.853ZM157.222 128.903H146.223V123.251C146.223 121.124 147.985 119.361 150.112 119.361H204.321C206.448 119.361 208.21 121.124 208.21 123.251V166.156C208.21 168.283 206.448 170.045 204.321 170.045H195.327C192.956 170.045 191.072 171.929 191.072 174.299V185.056L177.338 171.322C176.548 170.531 175.515 170.045 174.299 170.045H169.316V141.3L169.073 138.93C167.858 133.278 163.117 129.024 157.222 128.903ZM146.223 166.156V137.471H156.919C157.952 137.471 158.863 137.897 159.592 138.626C159.592 138.626 160.747 139.598 160.747 141.3V170.045H150.112C147.985 170.045 146.223 168.283 146.223 166.156ZM150.112 178.553H160.747H160.808V184.205C160.808 186.332 159.046 188.095 156.919 188.095H132.731C131.577 188.095 130.483 188.581 129.693 189.371L115.958 203.105V192.349C115.958 189.979 114.074 188.095 111.704 188.095H102.649C100.522 188.095 98.7595 186.332 98.7595 184.205V141.3C98.7595 139.173 100.522 137.411 102.649 137.411H137.715V166.156C137.715 172.962 143.306 178.553 150.112 178.553Z" fill="#ADE7FF"/>
<path d="M218.845 241.027C222.917 236.773 228.204 233.795 233.978 232.519C224.254 223.282 224.011 207.846 233.552 198.365C242.85 189.067 257.922 189.067 267.22 198.365C276.701 207.846 276.518 223.282 266.734 232.519C272.507 233.795 277.794 236.773 281.866 241.027C289.645 228.751 289.463 213.011 281.684 200.918C276.64 193.078 268.132 186.636 258.226 184.691C248.138 182.504 238.171 184.631 230.149 189.796C212.95 200.857 207.906 223.768 218.845 241.027Z" fill="#ADE7FF"/>
<path fill-rule="evenodd" clip-rule="evenodd" d="M43.153 266.673C29.2969 265.275 16.8386 257.74 9.24208 245.889C2.92177 236.044 0.308571 223.768 2.98255 211.431C5.65652 199.094 13.0707 189.006 22.9158 182.625C32.7609 176.305 45.0369 173.692 57.3737 176.366C69.7104 179.04 79.7986 186.454 86.1797 196.36C92.5 206.205 95.1132 218.481 92.4392 230.818C89.7652 243.154 82.351 253.242 72.4452 259.624C64.4232 264.789 54.6997 267.524 44.733 266.795L43.153 266.673ZM31.3632 232.519C25.529 233.795 20.3026 236.773 16.2309 241.027C5.35266 223.829 10.3968 200.857 27.5953 189.796C44.8546 178.675 68.0088 183.658 79.1301 200.918C86.8482 212.951 87.0913 228.691 79.3124 241.027C75.1799 236.773 69.9535 233.795 64.1801 232.519C73.9037 223.282 74.086 207.846 64.6056 198.365C55.3074 189.067 40.2359 189.067 30.9378 198.365C21.3965 207.846 21.6396 223.282 31.3632 232.519ZM57.6775 240.359C63.9978 240.359 69.832 243.094 73.8429 247.712C59.683 261.629 36.4073 262.298 21.5788 247.712C25.6506 243.094 31.4847 240.359 37.7442 240.359H57.6775ZM36.8934 226.077C27.2307 216.475 34.0979 199.945 47.7109 199.945C56.1582 199.945 63.0255 206.812 63.0255 215.26C63.0255 228.873 46.4954 235.679 36.8934 226.077Z" fill="#0985CE"/>
<path d="M16.2309 241.027C20.3026 236.773 25.529 233.795 31.3632 232.519C21.6396 223.282 21.3965 207.846 30.9378 198.365C40.2359 189.067 55.3074 189.067 64.6056 198.365C74.086 207.846 73.9037 223.282 64.1801 232.519C69.9535 233.795 75.1799 236.773 79.3124 241.027C87.0913 228.691 86.8482 212.951 79.1301 200.918C68.0088 183.658 44.8546 178.675 27.5953 189.796C10.3968 200.857 5.35266 223.829 16.2309 241.027Z" fill="#ADE7FF"/>
<path d="M117.538 67.5226C121.61 63.2686 126.836 60.2907 132.67 59.0145C122.947 49.7771 122.704 34.341 132.184 24.8605C141.482 15.5624 156.554 15.5624 165.852 24.8605C175.332 34.341 175.15 49.7771 165.366 59.0145C171.139 60.2907 176.426 63.2686 180.498 67.5226C188.277 55.1859 188.034 39.4459 180.316 27.413C169.195 10.1537 146.04 5.17035 128.842 16.2917C111.704 27.3522 106.599 50.2633 117.538 67.5226Z" fill="#ADE7FF"/>
<path fill-rule="evenodd" clip-rule="evenodd" d="M248.198 266.855C233.491 266.126 219.939 258.469 211.857 245.889C205.536 236.105 202.923 223.95 205.536 211.674C205.563 211.594 205.578 211.526 205.591 211.464C205.609 211.385 205.624 211.317 205.658 211.249C208.393 198.973 215.746 189.006 225.53 182.686C235.315 176.366 247.469 173.752 259.745 176.366C259.845 176.366 259.927 176.384 260.001 176.401C260.061 176.414 260.116 176.426 260.17 176.426C272.446 179.161 282.413 186.515 288.733 196.36C295.054 206.144 297.667 218.298 295.054 230.574C295.054 230.635 295.039 230.711 295.023 230.787C295.008 230.863 294.993 230.939 294.993 231C292.258 243.276 284.905 253.242 275.12 259.563C267.159 264.728 257.861 267.281 248.198 266.855ZM233.978 232.519C228.204 233.795 222.917 236.773 218.845 241.027C207.906 223.768 212.95 200.857 230.149 189.796C238.171 184.631 248.138 182.504 258.226 184.691C268.132 186.636 276.64 193.078 281.684 200.918C289.463 213.011 289.645 228.751 281.866 241.027C277.794 236.773 272.507 233.795 266.734 232.519C276.518 223.282 276.701 207.846 267.22 198.365C257.922 189.067 242.85 189.067 233.552 198.365C224.011 207.846 224.254 223.282 233.978 232.519ZM260.292 240.359C266.612 240.359 272.446 243.094 276.457 247.712C261.872 262.054 238.596 261.872 224.193 247.712C228.204 243.094 234.038 240.359 240.298 240.359H260.292ZM239.508 226.077C229.845 216.475 236.712 199.945 250.325 199.945C258.773 199.945 265.64 206.812 265.64 215.26C265.64 228.873 249.11 235.679 239.508 226.077Z" fill="#0985CE"/>
<path d="M146.223 128.903H157.222C163.117 129.024 167.858 133.278 169.073 138.93L169.316 141.3V170.045M146.223 128.903V123.251C146.223 121.124 147.985 119.361 150.112 119.361H204.321C206.448 119.361 208.21 121.124 208.21 123.251V166.156C208.21 168.283 206.448 170.045 204.321 170.045H195.327C192.956 170.045 191.072 171.929 191.072 174.299V185.056L177.338 171.322C176.548 170.531 175.515 170.045 174.299 170.045H169.316M146.223 128.903L137.715 128.963M169.316 170.045V178.614M146.223 166.156V137.411V137.471M146.223 166.156C146.223 168.283 147.985 170.045 150.112 170.045H160.747M146.223 166.156V137.471M160.747 170.045V141.3C160.747 139.598 159.592 138.626 159.592 138.626C158.863 137.897 157.952 137.471 156.919 137.471H146.223M160.747 170.045L160.808 178.553M146.223 137.471L137.715 137.411M169.316 178.614H172.537L192.288 198.365C194.962 201.039 199.52 199.094 199.52 195.327V178.553H204.321C211.127 178.553 216.718 172.962 216.718 166.156V123.251C216.718 116.444 211.127 110.853 204.321 110.853H150.112C143.245 110.853 137.715 116.444 137.715 123.251V128.963M169.316 178.614V184.327C169.316 191.133 163.725 196.724 156.919 196.724H134.433L114.682 216.475C112.008 219.149 107.45 217.205 107.45 213.437V196.664H102.649C95.8425 196.664 90.2514 191.072 90.2514 184.266V141.361C90.2514 134.554 95.8425 128.963 102.649 128.963H137.715M137.715 137.411V166.156C137.715 172.962 143.306 178.553 150.112 178.553H160.747H160.808M137.715 137.411H102.649C100.522 137.411 98.7595 139.173 98.7595 141.3V184.205C98.7595 186.332 100.522 188.095 102.649 188.095H111.704C114.074 188.095 115.958 189.979 115.958 192.349V203.105L129.693 189.371C130.483 188.581 131.577 188.095 132.731 188.095H156.919C159.046 188.095 160.808 186.332 160.808 184.205V178.553M104.32 38.0177C104.335 37.9418 104.351 37.8658 104.351 37.805C107.085 25.529 114.439 15.5624 124.223 9.24208C134.068 2.92177 146.344 0.308571 158.681 2.98255C171.018 5.65652 181.106 13.0707 187.487 22.9158C193.807 32.7609 196.42 45.0369 193.746 57.3737C189.067 78.9478 169.741 93.837 148.046 93.4116C132.913 93.1077 118.875 85.2681 110.549 72.4452C104.229 62.6608 101.677 50.5064 104.29 38.2304C104.29 38.1734 104.303 38.1031 104.317 38.032M104.32 38.0177C104.319 38.0225 104.318 38.0272 104.317 38.032M104.32 38.0177L104.317 38.032M117.538 67.5226C121.61 63.2686 126.836 60.2907 132.67 59.0145C122.947 49.7771 122.704 34.341 132.184 24.8605C141.482 15.5624 156.554 15.5624 165.852 24.8605C175.332 34.341 175.15 49.7771 165.366 59.0145C171.139 60.2907 176.426 63.2686 180.498 67.5226C188.277 55.1859 188.034 39.4459 180.316 27.413C169.195 10.1537 146.04 5.17035 128.842 16.2917C111.704 27.3522 106.599 50.2633 117.538 67.5226ZM175.15 74.2076C171.139 69.5889 165.305 66.8541 159.046 66.8541H139.051C132.792 66.8541 126.958 69.5889 122.947 74.2076C137.532 88.6106 160.808 88.3067 175.15 74.2076ZM149.018 26.4406C135.405 26.4406 128.599 42.9707 138.201 52.5727C147.803 62.1747 164.333 55.3682 164.333 41.7552C164.333 33.3079 157.465 26.4406 149.018 26.4406ZM43.153 266.673C29.2969 265.275 16.8386 257.74 9.24208 245.889C2.92177 236.044 0.308571 223.768 2.98255 211.431C5.65652 199.094 13.0707 189.006 22.9158 182.625C32.7609 176.305 45.0369 173.692 57.3737 176.366C69.7104 179.04 79.7986 186.454 86.1797 196.36C92.5 206.205 95.1132 218.481 92.4392 230.818C89.7652 243.154 82.351 253.242 72.4452 259.624C64.4232 264.789 54.6997 267.524 44.733 266.795L43.153 266.673ZM16.2309 241.027C20.3026 236.773 25.529 233.795 31.3632 232.519C21.6396 223.282 21.3965 207.846 30.9378 198.365C40.2359 189.067 55.3074 189.067 64.6056 198.365C74.086 207.846 73.9037 223.282 64.1801 232.519C69.9535 233.795 75.1799 236.773 79.3124 241.027C87.0913 228.691 86.8482 212.951 79.1301 200.918C68.0088 183.658 44.8546 178.675 27.5953 189.796C10.3968 200.857 5.35266 223.829 16.2309 241.027ZM73.8429 247.712C69.832 243.094 63.9978 240.359 57.6775 240.359H37.7442C31.4847 240.359 25.6506 243.094 21.5788 247.712C36.4073 262.298 59.683 261.629 73.8429 247.712ZM47.7109 199.945C34.0979 199.945 27.2307 216.475 36.8934 226.077C46.4954 235.679 63.0255 228.873 63.0255 215.26C63.0255 206.812 56.1582 199.945 47.7109 199.945ZM248.198 266.855C233.491 266.126 219.939 258.469 211.857 245.889C205.536 236.105 202.923 223.95 205.536 211.674C205.563 211.594 205.578 211.526 205.591 211.464C205.609 211.385 205.624 211.317 205.658 211.249C208.393 198.973 215.746 189.006 225.53 182.686C235.315 176.366 247.469 173.752 259.745 176.366C259.845 176.366 259.927 176.384 260.001 176.401C260.061 176.414 260.116 176.426 260.17 176.426C272.446 179.161 282.413 186.515 288.733 196.36C295.054 206.144 297.667 218.298 295.054 230.574C295.054 230.635 295.039 230.711 295.023 230.787C295.008 230.863 294.993 230.939 294.993 231C292.258 243.276 284.905 253.242 275.12 259.563C267.159 264.728 257.861 267.281 248.198 266.855ZM218.845 241.027C222.917 236.773 228.204 233.795 233.978 232.519C224.254 223.282 224.011 207.846 233.552 198.365C242.85 189.067 257.922 189.067 267.22 198.365C276.701 207.846 276.518 223.282 266.734 232.519C272.507 233.795 277.794 236.773 281.866 241.027C289.645 228.751 289.463 213.011 281.684 200.918C276.64 193.078 268.132 186.636 258.226 184.691C248.138 182.504 238.171 184.631 230.149 189.796C212.95 200.857 207.906 223.768 218.845 241.027ZM276.457 247.712C272.446 243.094 266.612 240.359 260.292 240.359H240.298C234.038 240.359 228.204 243.094 224.193 247.712C238.596 261.872 261.872 262.054 276.457 247.712ZM250.325 199.945C236.712 199.945 229.845 216.475 239.508 226.077C249.11 235.679 265.64 228.873 265.64 215.26C265.64 206.812 258.773 199.945 250.325 199.945ZM45.4623 163.847C45.3408 166.217 43.3353 167.979 41.0259 167.858C38.7166 167.736 36.8934 165.73 37.015 163.421C38.4735 135.223 50.7495 108.605 70.7435 89.036L65.274 90.4945C63.0255 91.1022 60.7161 89.7045 60.1084 87.4559C59.5007 85.2073 60.8985 82.898 63.147 82.2903L86.6659 76.1523C90.0083 75.3015 92.9254 78.5832 91.6492 81.8041L82.7157 104.411C81.8649 106.599 79.434 107.693 77.2462 106.842C75.0584 105.991 73.9645 103.5 74.8153 101.373L77.6108 94.2016C58.5283 112.312 46.9208 137.289 45.4623 163.847ZM260.17 136.074C260.778 133.825 263.088 132.488 265.397 133.096C267.645 133.704 268.982 136.013 268.375 138.322L261.933 161.78C261.021 165.184 256.646 165.974 254.519 163.3L239.386 144.217C237.928 142.394 238.232 139.72 240.055 138.261C241.878 136.803 244.552 137.107 246.011 138.93L250.751 144.886C243.823 116.262 225.287 92.4392 199.884 78.3401C197.818 77.1854 197.089 74.633 198.244 72.5667C199.398 70.5005 201.951 69.7712 204.017 70.9259C231.061 85.9366 250.872 111.157 258.651 141.543L260.17 136.074ZM118.632 280.651C120.273 282.352 120.273 285.026 118.571 286.667C116.93 288.308 114.196 288.308 112.555 286.606L95.4778 269.286C93.0469 266.795 94.5055 262.601 97.9087 262.115L121.975 258.53C124.284 258.165 126.472 259.806 126.776 262.115C127.14 264.425 125.499 266.612 123.19 266.916L115.654 268.01C144.703 276.579 176.305 271.96 201.768 255.43C203.713 254.154 206.387 254.701 207.663 256.646C208.94 258.59 208.393 261.264 206.387 262.541C179.343 280.104 145.736 285.269 114.682 276.579L118.632 280.651Z" stroke="#111111" stroke-width="2"/>
</svg>
