<svg width="52" height="27" viewBox="0 0 52 27" fill="none" xmlns="http://www.w3.org/2000/svg">
<path d="M34.0001 9.10332e-05H41.9176C43.8778 9.10332e-05 45.5185 0.27708 46.8395 0.831057C48.169 1.38503 49.1662 2.1606 49.831 3.15776C50.5043 4.15492 50.8409 5.30975 50.8409 6.62225C50.8409 7.61941 50.6321 8.51003 50.2145 9.29412C49.7969 10.0697 49.2216 10.7132 48.4886 11.2245C47.7557 11.7359 46.9077 12.0938 45.9446 12.2984V12.5541C47.0014 12.6052 47.9773 12.8907 48.8722 13.4106C49.7756 13.9305 50.5 14.6549 51.0455 15.5839C51.5909 16.5044 51.8636 17.5953 51.8636 18.8566C51.8636 20.2629 51.5057 21.52 50.7898 22.6279C50.0739 23.7274 49.0383 24.5967 47.6832 25.2359C46.3281 25.8666 44.6832 26.1819 42.7486 26.1819H33.2042H30.0001H27.867C26.8857 26.1819 25.9664 25.702 25.4055 24.8968L20.0575 17.2203H18.5C17.9477 17.2203 17.5 16.7725 17.5 16.2203V13.2345C17.5 12.6822 17.9477 12 18.5 12H19.5C20.4545 12 21.1989 12.1109 21.8381 11.8637C22.4858 11.608 22.9758 11.2245 23.3082 10.7132C23.6406 10.1933 23.8068 9.5285 23.8068 8.71884C23.8068 7.90918 23.6406 7.24015 23.3082 6.71174C22.9758 6.17481 22.4858 5.77424 21.8381 5.51004C21.1992 5.24105 20.4153 5.10472 19.4863 5.10102L17.5 5.10094H17.3281L9.43037 5.10102C8.37356 5.10102 7.53407 5.27566 6.91191 5.7785C6.28975 6.28134 5.97867 6.97168 5.97867 7.84952C5.97867 8.46316 6.13208 8.98731 6.4389 9.42196C6.73719 9.85662 7.15481 10.189 7.69174 10.4191C8.22867 10.6492 8.8423 10.7643 9.53265 10.7643H15.5C16.0523 10.7643 16.5 11.212 16.5 11.7643V14.5C16.5 15.0523 16.0523 15.5 15.5 15.5H9.43037C8.37356 15.5 7.53407 15.7514 6.91191 16.2543C6.28975 16.7571 5.97987 17.3535 5.97987 18.2314C5.97987 18.845 6.13328 19.3691 6.4401 19.8038C6.7384 20.2385 7.15481 20.5058 7.69174 20.7359C8.22867 20.966 8.8423 21.0811 9.53265 21.0811H18.5C19.0523 21.0811 19.5 21.5288 19.5 22.0811V25.1819C19.5 25.7342 19.0523 26.1819 18.5 26.1819H3C1.34315 26.1819 0 24.8388 0 23.1819V3.00009C0 1.34324 1.34315 9.10348e-05 3 9.10348e-05L16.5 9.10338e-05L20.8153 9.10332e-05C22.7756 9.10332e-05 24.4673 0.353785 25.8906 1.06117C27.3224 1.76003 28.4261 2.76572 29.2017 4.07822C29.9773 5.38219 30.3651 6.92907 30.3651 8.71884C30.3651 10.5342 29.9687 12.0768 29.1761 13.3467C28.4826 14.4503 27.5347 15.3256 26.3322 15.9725L30.7027 20.7556C30.8922 20.9629 31.1601 21.0811 31.4409 21.0811H41.2401C42.6122 21.0811 43.6222 20.8211 44.2699 20.3012C44.9261 19.7813 45.2543 19.0569 45.2543 18.1279C45.2543 17.4546 45.0966 16.8751 44.7812 16.3893C44.4659 15.895 44.0185 15.5157 43.4389 15.2515C42.8594 14.9788 42.1648 14.8424 41.3551 14.8424H38.3281C37.7758 14.8424 37.3281 14.3947 37.3281 13.8424V11.7643C37.3281 11.212 37.7758 10.7643 38.3281 10.7643H40.831C41.5213 10.7643 42.1349 10.6492 42.6719 10.4191C43.2088 10.189 43.6264 9.85662 43.9247 9.42196C44.2315 8.98731 44.3849 8.46316 44.3849 7.84952C44.3849 6.97168 44.0739 6.28134 43.4517 5.7785C42.8295 5.27566 41.9901 5.02424 40.9332 5.02424H37.1641C36.6118 5.02424 36.1641 5.47196 36.1641 6.02424V19.0001C36.1641 19.5524 35.7164 20.0001 35.1641 20.0001H34.0001C32.3432 20.0001 31.0001 18.6569 31.0001 17.0001V3.00009C31.0001 1.34324 32.3432 9.10332e-05 34.0001 9.10332e-05Z" fill="#ADE7FF"/>
</svg>
