<svg width="298" height="298" viewBox="0 0 298 298" fill="none" xmlns="http://www.w3.org/2000/svg">
<path d="M168.901 23.5314C176.098 25.2429 192.496 30.3678 199.258 33.3115C198.245 37.4488 197.704 41.7694 197.704 46.2187C197.704 59.1902 200.992 65.8272 207.147 76.447C212.915 86.404 214.842 94.3472 215.543 105.881V112.785C215.543 114.203 215.717 115.58 216.048 116.899C203.695 91.1525 177.7 74.6808 149 74.6808C107.956 74.6808 74.6808 107.956 74.6808 149C74.6808 190.044 107.956 223.319 149 223.319C190.044 223.319 223.319 190.044 223.319 149C223.319 139.468 221.524 130.353 218.252 121.979C219.436 123.81 220.961 125.399 222.734 126.657V127.172C222.734 132.972 225.661 138.107 230.114 141.176V141.562C230.114 150.93 237.745 158.561 247.113 158.561H256.449C265.818 158.561 273.449 150.93 273.449 141.562V141.176C277.901 138.107 280.829 132.972 280.829 127.172V126.657C281.813 125.959 282.023 129.099 282.023 129.099H296.059V168.901H273.449C270.36 181.886 258.946 211.956 251.949 223.319L267.059 238.913L238.913 267.059L222.734 251.392C211.368 258.393 181.889 271.377 168.901 274.469V296.059H129.099V274.469C124.456 273.365 110.507 269.215 106.032 267.594C108.413 261.204 109.715 254.291 109.715 247.071C109.715 214.604 83.396 188.281 50.9254 188.281C43.7061 188.281 36.7893 189.587 30.4 191.968C28.7786 187.493 26.2469 173.547 25.1402 168.901H1.94116V129.099L25.1402 128.089C28.2286 115.104 37.4457 83.1515 44.443 71.7886L30.9405 59.0873L59.0873 30.9405L74.6808 46.2187C86.0469 39.2214 116.114 26.6231 129.099 23.5314V1.94116H168.901V23.5314Z" fill="#6F899E"/>
<path fill-rule="evenodd" clip-rule="evenodd" d="M194.619 103.381C182.944 91.7059 166.817 84.4834 149 84.4834C113.367 84.4834 84.4834 113.367 84.4834 149C84.4834 166.009 91.0657 181.48 101.821 193.004C106.859 171.639 126.026 155.727 148.923 155.692C171.491 155.846 190.974 170.934 196.176 193.004C206.931 181.477 213.513 166.009 213.513 149C213.517 131.183 206.294 115.056 194.619 103.381ZM124.492 125.058C124.492 138.593 135.465 149.566 149 149.566C162.538 149.566 173.508 138.593 173.508 125.058C173.508 111.523 162.535 100.55 149 100.55C135.465 100.55 124.492 111.523 124.492 125.058Z" fill="#ADE7FF"/>
<path fill-rule="evenodd" clip-rule="evenodd" d="M50.9286 198.084C23.8756 198.084 1.94116 220.015 1.94116 247.071C1.94116 274.124 23.8724 296.059 50.9286 296.059C77.9816 296.059 99.916 274.128 99.916 247.071C99.9128 220.018 77.9816 198.084 50.9286 198.084ZM39.3726 266.821C42.2101 269.659 46.8107 269.659 49.6482 266.821C55.7598 260.71 61.8267 254.556 67.8931 248.403L67.9056 248.39L67.9106 248.385C71.4728 244.772 75.0349 241.159 78.6057 237.555C81.4207 234.714 81.411 230.127 78.5735 227.302C75.7328 224.477 71.1323 224.487 68.314 227.334L44.4943 251.392L33.5496 240.447C30.7121 237.61 26.1116 237.61 23.274 240.447C20.4365 243.285 20.4365 247.885 23.274 250.723L39.3726 266.821Z" fill="#0985CE"/>
<path d="M240.409 144.168C241.457 146.845 244.073 148.755 247.11 148.755H256.446C259.483 148.755 262.099 146.848 263.147 144.168H240.409Z" fill="#86A9C5"/>
<path d="M263.829 134.365C266.866 134.365 269.482 132.457 270.531 129.778H233.032C234.081 132.454 236.696 134.365 239.733 134.365H263.829Z" fill="#86A9C5"/>
<path d="M225.838 115.39C226.887 118.067 229.503 119.978 232.54 119.978H271.026C274.063 119.978 276.679 118.07 277.728 115.39H225.838Z" fill="#86A9C5"/>
<path d="M251.781 1.94116C227.328 1.94116 207.504 21.7652 207.504 46.2187C207.504 57.6491 210.898 63.4489 214.744 70.0225C219.173 77.5917 224.203 86.1868 225.343 105.585H239.231V61.735H233.846C225.481 61.735 218.654 54.9082 218.654 46.5436C218.654 38.1791 225.481 31.3523 233.846 31.3523C242.21 31.3523 249.037 38.1791 249.037 46.5436V51.9291H254.526V46.5436C254.526 38.1791 261.352 31.3523 269.717 31.3523C278.081 31.3523 284.908 38.1791 284.908 46.5436C284.908 54.9082 278.081 61.735 269.717 61.735H264.331V105.585H278.22C279.36 86.184 284.39 77.5883 288.819 70.0189C292.665 63.4459 296.059 57.6469 296.059 46.2187C296.059 21.7652 276.235 1.94116 251.781 1.94116Z" fill="#ADE7FF"/>
<path d="M264.328 51.9323H269.714C272.667 51.9323 275.099 49.497 275.099 46.5468C275.099 43.5935 272.664 41.1614 269.714 41.1614C266.76 41.1614 264.328 43.5967 264.328 46.5468V51.9323Z" fill="#0985CE"/>
<path d="M239.234 51.9323V46.5468C239.234 43.5935 236.799 41.1614 233.849 41.1614C230.896 41.1614 228.463 43.5967 228.463 46.5468C228.463 49.5002 230.899 51.9323 233.849 51.9323H239.234Z" fill="#0985CE"/>
<path d="M254.526 105.585V61.735H249.037V105.585H254.526Z" fill="#0985CE"/>
<path d="M168.901 23.5314C176.098 25.2429 192.496 30.3678 199.258 33.3115C198.245 37.4488 197.704 41.7694 197.704 46.2187C197.704 59.1902 200.992 65.8272 207.147 76.447C212.915 86.404 214.842 94.3472 215.543 105.881V112.785C215.543 114.203 215.717 115.58 216.048 116.899C203.695 91.1525 177.7 74.6808 149 74.6808C107.956 74.6808 74.6808 107.956 74.6808 149C74.6808 190.044 107.956 223.319 149 223.319C190.044 223.319 223.319 190.044 223.319 149C223.319 139.468 221.524 130.353 218.252 121.979C219.436 123.81 220.961 125.399 222.734 126.657V127.172C222.734 132.972 225.661 138.107 230.114 141.176V141.562C230.114 150.93 237.745 158.561 247.113 158.561H256.449C265.818 158.561 273.449 150.93 273.449 141.562V141.176C277.901 138.107 280.829 132.972 280.829 127.172V126.657C281.813 125.959 282.023 129.099 282.023 129.099H296.059V168.901H273.449C270.36 181.886 258.946 211.956 251.949 223.319L267.059 238.913L238.913 267.059L222.734 251.392C211.368 258.393 181.889 271.377 168.901 274.469V296.059H129.099V274.469C124.456 273.365 110.507 269.215 106.032 267.594C108.413 261.204 109.715 254.291 109.715 247.071C109.715 214.604 83.396 188.281 50.9254 188.281C43.7061 188.281 36.7893 189.587 30.4 191.968C28.7786 187.493 26.2469 173.547 25.1402 168.901H1.94116V129.099L25.1402 128.089C28.2286 115.104 37.4457 83.1515 44.443 71.7886L30.9405 59.0873L59.0873 30.9405L74.6808 46.2187C86.0469 39.2214 116.114 26.6231 129.099 23.5314V1.94116H168.901V23.5314Z" stroke="#111111" stroke-width="2"/>
<path fill-rule="evenodd" clip-rule="evenodd" d="M194.619 103.381C182.944 91.7059 166.817 84.4834 149 84.4834C113.367 84.4834 84.4834 113.367 84.4834 149C84.4834 166.009 91.0657 181.48 101.821 193.004C106.859 171.639 126.026 155.727 148.923 155.692C171.491 155.846 190.974 170.934 196.176 193.004C206.931 181.477 213.513 166.009 213.513 149C213.517 131.183 206.294 115.056 194.619 103.381ZM124.492 125.058C124.492 138.593 135.465 149.566 149 149.566C162.538 149.566 173.508 138.593 173.508 125.058C173.508 111.523 162.535 100.55 149 100.55C135.465 100.55 124.492 111.523 124.492 125.058Z" stroke="#111111" stroke-width="2"/>
<path fill-rule="evenodd" clip-rule="evenodd" d="M50.9286 198.084C23.8756 198.084 1.94116 220.015 1.94116 247.071C1.94116 274.124 23.8724 296.059 50.9286 296.059C77.9816 296.059 99.916 274.128 99.916 247.071C99.9128 220.018 77.9816 198.084 50.9286 198.084ZM39.3726 266.821C42.2101 269.659 46.8107 269.659 49.6482 266.821C55.7598 260.71 61.8267 254.556 67.8931 248.403L67.9056 248.39L67.9106 248.385C71.4728 244.772 75.0349 241.159 78.6057 237.555C81.4207 234.714 81.411 230.127 78.5735 227.302C75.7328 224.477 71.1323 224.487 68.314 227.334L44.4943 251.392L33.5496 240.447C30.7121 237.61 26.1116 237.61 23.274 240.447C20.4365 243.285 20.4365 247.885 23.274 250.723L39.3726 266.821Z" stroke="#111111" stroke-width="2"/>
<path d="M240.409 144.168C241.457 146.845 244.073 148.755 247.11 148.755H256.446C259.483 148.755 262.099 146.848 263.147 144.168H240.409Z" stroke="#111111" stroke-width="2"/>
<path d="M263.829 134.365C266.866 134.365 269.482 132.457 270.531 129.778H233.032C234.081 132.454 236.696 134.365 239.733 134.365H263.829Z" stroke="#111111" stroke-width="2"/>
<path d="M225.838 115.39C226.887 118.067 229.503 119.978 232.54 119.978H271.026C274.063 119.978 276.679 118.07 277.728 115.39H225.838Z" stroke="#111111" stroke-width="2"/>
<path d="M251.781 1.94116C227.328 1.94116 207.504 21.7652 207.504 46.2187C207.504 57.6491 210.898 63.4489 214.744 70.0225C219.173 77.5917 224.203 86.1868 225.343 105.585H239.231V61.735H233.846C225.481 61.735 218.654 54.9082 218.654 46.5436C218.654 38.1791 225.481 31.3523 233.846 31.3523C242.21 31.3523 249.037 38.1791 249.037 46.5436V51.9291H254.526V46.5436C254.526 38.1791 261.352 31.3523 269.717 31.3523C278.081 31.3523 284.908 38.1791 284.908 46.5436C284.908 54.9082 278.081 61.735 269.717 61.735H264.331V105.585H278.22C279.36 86.184 284.39 77.5883 288.819 70.0189C292.665 63.4459 296.059 57.6469 296.059 46.2187C296.059 21.7652 276.235 1.94116 251.781 1.94116Z" stroke="#111111" stroke-width="2"/>
<path d="M264.328 51.9323H269.714C272.667 51.9323 275.099 49.497 275.099 46.5468C275.099 43.5935 272.664 41.1614 269.714 41.1614C266.76 41.1614 264.328 43.5967 264.328 46.5468V51.9323Z" stroke="#111111" stroke-width="2"/>
<path d="M239.234 51.9323V46.5468C239.234 43.5935 236.799 41.1614 233.849 41.1614C230.896 41.1614 228.463 43.5967 228.463 46.5468C228.463 49.5002 230.899 51.9323 233.849 51.9323H239.234Z" stroke="#111111" stroke-width="2"/>
<path d="M254.526 105.585V61.735H249.037V105.585H254.526Z" stroke="#111111" stroke-width="2"/>
</svg>
