<svg width="298" height="301" viewBox="0 0 298 301" fill="none" xmlns="http://www.w3.org/2000/svg">
<path fill-rule="evenodd" clip-rule="evenodd" d="M75.3732 185.392C79.9757 185.392 84.4133 186.175 88.535 187.659L187.525 88.7398C185.972 84.6044 185.189 80.1668 185.189 75.578C185.189 54.3929 202.322 37.192 223.589 37.192C226.158 37.192 228.727 37.508 231.228 37.9751L207.007 62.2103L213.313 85.8823L236.985 92.1886L261.206 67.9671C261.674 70.4676 261.907 73.023 261.907 75.5923C261.907 96.7774 244.775 113.992 223.588 113.992C218.917 113.992 214.479 113.141 210.426 111.657L111.436 210.632C112.92 214.685 113.772 219.123 113.772 223.794C113.772 244.979 96.5573 262.113 75.3718 262.113C54.1867 262.113 36.9718 244.995 36.9718 223.794C36.9718 202.527 54.1877 185.392 75.3732 185.392ZM93.4397 213.351L75.3732 202.909L57.3753 213.351V234.138L75.3732 244.58L93.4397 234.138V213.351Z" fill="#86A9C5"/>
<path d="M239.866 132.129H262.837V167.259H239.866C237.53 179.638 232.626 191.082 225.839 201.207L242.051 217.488L217.279 242.259L200.999 225.965C190.956 232.821 179.429 237.739 167.037 240.075V263.046H131.907V240.075C127.771 239.292 123.732 238.206 119.762 236.887C121.012 232.752 121.712 228.314 121.712 223.794C121.712 220.057 121.245 216.389 120.394 212.885L137.911 195.368C141.565 196.316 145.467 196.77 149.437 196.77C175.445 196.77 196.56 175.667 196.56 149.658C196.56 145.687 196.093 141.799 195.159 138.145L212.676 120.627C216.179 121.479 219.847 121.864 223.584 121.864C228.105 121.864 232.459 121.246 236.595 120.078C237.996 123.939 239.097 127.993 239.866 132.129Z" fill="#6F899E"/>
<path d="M62.2937 179.32C60.961 175.432 59.8756 171.365 59.0238 167.244L36.0386 167.257V132.127H59.0097C61.4278 119.749 66.3324 108.208 73.1057 98.1649L56.9076 81.8845L81.6787 57.0447L97.9592 73.3252C108.002 66.5382 119.529 61.6472 131.921 59.2155V36.2444H167.052V59.2155C171.104 60.0673 175.158 61.1664 179.128 62.5678C177.96 66.6895 177.26 71.0585 177.26 75.5646C177.26 79.2193 177.727 82.8873 178.592 86.4734L161.075 104.004C157.338 103.07 153.519 102.52 149.466 102.52C123.445 102.52 102.343 123.623 102.343 149.632C102.343 153.685 102.893 157.491 103.827 161.242L86.3099 178.759C82.7242 177.907 79.0695 177.426 75.4011 177.426C70.8535 177.44 66.4154 178.152 62.2937 179.32Z" fill="#6F899E"/>
<path d="M229.746 284.06C233.382 283.829 236.525 286.496 236.756 290.133C237.048 293.698 234.32 296.912 230.683 297.143L193.292 299.935C187.939 300.307 184.466 294.409 187.289 289.925L207.082 258.065C208.957 254.987 213.068 254.052 216.085 255.999C219.163 257.874 220.098 261.985 218.151 265.002L211.919 274.95C250.968 249.358 277.064 207.61 283.038 161.195C284.875 133.817 272.523 91.1707 276.081 91.6108C279.64 92.0509 297.184 139.092 296.002 162.859C293.513 212.885 262.212 256.812 221.02 284.64L229.746 284.06Z" fill="#0985CE"/>
<path d="M79.686 15.0579C76.0435 14.9511 73.1614 12.0042 73.2682 8.36176C73.308 4.78483 76.3219 1.83721 79.9643 1.94397L117.453 2.62592C122.817 2.75184 125.73 8.94526 122.503 13.1492L99.8452 43.0398C97.6931 45.9308 93.5134 46.4805 90.6895 44.2629C87.7985 42.1109 87.2488 37.9312 89.4663 35.1072L96.5923 25.7793C55.3419 47.6459 25.4925 86.7974 15.2463 132.46C10.8824 159.55 19.2325 203.157 15.73 202.39C12.2274 201.622 -0.885755 153.158 2.49226 129.602C7.38694 95.4706 44.8364 39.1819 88.4281 15.2876L79.686 15.0579Z" fill="#0985CE"/>
<path fill-rule="evenodd" clip-rule="evenodd" d="M75.3732 185.392C79.9757 185.392 84.4133 186.175 88.535 187.659L187.525 88.7398C185.972 84.6044 185.189 80.1668 185.189 75.578C185.189 54.3929 202.322 37.192 223.589 37.192C226.158 37.192 228.727 37.508 231.228 37.9751L207.007 62.2103L213.313 85.8823L236.985 92.1886L261.206 67.9671C261.674 70.4676 261.907 73.023 261.907 75.5923C261.907 96.7774 244.775 113.992 223.588 113.992C218.917 113.992 214.479 113.141 210.426 111.657L111.436 210.632C112.92 214.685 113.772 219.123 113.772 223.794C113.772 244.979 96.5573 262.113 75.3718 262.113C54.1867 262.113 36.9718 244.995 36.9718 223.794C36.9718 202.527 54.1877 185.392 75.3732 185.392ZM93.4397 213.351L75.3732 202.909L57.3753 213.351V234.138L75.3732 244.58L93.4397 234.138V213.351Z" stroke="#111111" stroke-width="2"/>
<path d="M239.866 132.129H262.837V167.259H239.866C237.53 179.638 232.626 191.082 225.839 201.207L242.051 217.488L217.279 242.259L200.999 225.965C190.956 232.821 179.429 237.739 167.037 240.075V263.046H131.907V240.075C127.771 239.292 123.732 238.206 119.762 236.887C121.012 232.752 121.712 228.314 121.712 223.794C121.712 220.057 121.245 216.389 120.394 212.885L137.911 195.368C141.565 196.316 145.467 196.77 149.437 196.77C175.445 196.77 196.56 175.667 196.56 149.658C196.56 145.687 196.093 141.799 195.159 138.145L212.676 120.627C216.179 121.479 219.847 121.864 223.584 121.864C228.105 121.864 232.459 121.246 236.595 120.078C237.996 123.939 239.097 127.993 239.866 132.129Z" stroke="#111111" stroke-width="2"/>
<path d="M62.2937 179.32C60.961 175.432 59.8756 171.365 59.0238 167.244L36.0386 167.257V132.127H59.0097C61.4278 119.749 66.3324 108.208 73.1057 98.1649L56.9076 81.8845L81.6787 57.0447L97.9592 73.3252C108.002 66.5382 119.529 61.6472 131.921 59.2155V36.2444H167.052V59.2155C171.104 60.0673 175.158 61.1664 179.128 62.5678C177.96 66.6895 177.26 71.0585 177.26 75.5646C177.26 79.2193 177.727 82.8873 178.592 86.4734L161.075 104.004C157.338 103.07 153.519 102.52 149.466 102.52C123.445 102.52 102.343 123.623 102.343 149.632C102.343 153.685 102.893 157.491 103.827 161.242L86.3099 178.759C82.7242 177.907 79.0695 177.426 75.4011 177.426C70.8535 177.44 66.4154 178.152 62.2937 179.32Z" stroke="#111111" stroke-width="2"/>
<path d="M229.746 284.06C233.382 283.829 236.525 286.496 236.756 290.133C237.048 293.698 234.32 296.912 230.683 297.143L193.292 299.935C187.939 300.307 184.466 294.409 187.289 289.925L207.082 258.065C208.957 254.987 213.068 254.052 216.085 255.999C219.163 257.874 220.098 261.985 218.151 265.002L211.919 274.95C250.968 249.358 277.064 207.61 283.038 161.195C284.875 133.817 272.523 91.1707 276.081 91.6108C279.64 92.0509 297.184 139.092 296.002 162.859C293.513 212.885 262.212 256.812 221.02 284.64L229.746 284.06Z" stroke="#111111" stroke-width="2"/>
<path d="M79.686 15.0579C76.0435 14.9511 73.1614 12.0042 73.2682 8.36176C73.308 4.78483 76.3219 1.83721 79.9643 1.94397L117.453 2.62592C122.817 2.75184 125.73 8.94526 122.503 13.1492L99.8452 43.0398C97.6931 45.9308 93.5134 46.4805 90.6895 44.2629C87.7985 42.1109 87.2488 37.9312 89.4663 35.1072L96.5923 25.7793C55.3419 47.6459 25.4925 86.7974 15.2463 132.46C10.8824 159.55 19.2325 203.157 15.73 202.39C12.2274 201.622 -0.885755 153.158 2.49226 129.602C7.38694 95.4706 44.8364 39.1819 88.4281 15.2876L79.686 15.0579Z" stroke="#111111" stroke-width="2"/>
</svg>
