<svg width="294" height="297" viewBox="0 0 294 297" fill="none" xmlns="http://www.w3.org/2000/svg">
<path fill-rule="evenodd" clip-rule="evenodd" d="M231.128 159.343C220.624 159.34 210.444 162.979 202.322 169.641C194.201 176.303 188.641 185.575 186.589 195.876C184.538 206.178 186.122 216.873 191.072 226.137C196.022 235.402 204.032 242.663 213.736 246.684C223.44 250.705 234.238 251.237 244.29 248.188C254.342 245.14 263.026 238.7 268.862 229.967C274.698 221.233 277.325 210.746 276.296 200.293C275.266 189.839 270.644 180.066 263.216 172.639C259.007 168.418 254.005 165.071 248.498 162.789C242.992 160.508 237.088 159.336 231.128 159.343ZM227.5 178.99L220.86 193.124L205.346 195.072C204.567 195.166 203.832 195.488 203.233 195.995C202.634 196.503 202.197 197.176 201.976 197.929C201.756 198.683 201.761 199.485 201.991 200.235C202.221 200.986 202.666 201.653 203.272 202.153L214.493 212.679L211.554 228.043C211.412 228.79 211.485 229.563 211.765 230.271C212.045 230.979 212.52 231.592 213.136 232.04C213.751 232.487 214.481 232.751 215.241 232.799C216 232.847 216.758 232.679 217.425 232.313L231.128 224.767L244.83 232.313C245.498 232.68 246.257 232.849 247.018 232.8C247.778 232.752 248.509 232.487 249.125 232.038C249.741 231.589 250.217 230.974 250.496 230.265C250.775 229.556 250.846 228.782 250.701 228.033L247.759 212.672L259.168 201.972C259.723 201.451 260.119 200.782 260.307 200.044C260.496 199.306 260.47 198.529 260.233 197.805C259.996 197.081 259.557 196.44 258.969 195.956C258.38 195.473 257.666 195.167 256.909 195.075L241.396 193.124L234.753 178.99C234.43 178.3 233.918 177.716 233.276 177.307C232.633 176.899 231.888 176.681 231.126 176.681C230.365 176.681 229.619 176.899 228.977 177.307C228.334 177.716 227.822 178.3 227.5 178.99Z" fill="#0985CE"/>
<path fill-rule="evenodd" clip-rule="evenodd" d="M224.354 151.731C225.25 147.507 225.948 143.245 226.448 138.943C227.051 133.721 227.353 128.468 227.353 123.211V55.0985L125.136 25.6443L22.9311 55.0985V123.211C23.0201 153.979 33.2383 183.862 52.0073 208.244C70.328 232.182 96.0332 249.41 125.139 257.256C146.357 251.549 165.884 240.805 182.062 225.937C178.781 218.332 177.311 210.07 177.769 201.8C178.227 193.531 180.601 185.481 184.701 178.286C188.802 171.091 194.519 164.947 201.4 160.338C208.282 155.73 216.14 152.783 224.354 151.731ZM102.922 114.925C100.781 116.349 98.8138 118.019 97.0606 119.9L97.0543 119.894C96.2547 119.625 95.4166 119.489 94.573 119.49H72.8898C71.8639 119.492 70.8485 119.696 69.9015 120.091C68.9546 120.486 68.0948 121.063 67.3713 121.791C66.6437 122.515 66.0664 123.376 65.6727 124.324C65.2791 125.272 65.0768 126.289 65.0775 127.315V174.701C65.0778 175.725 65.2807 176.739 65.6743 177.684C66.068 178.63 66.6447 179.488 67.3713 180.21L67.3872 180.226C68.1089 180.952 68.9672 181.529 69.9126 181.923C70.8581 182.316 71.8721 182.519 72.8962 182.519H94.5794C96.6206 182.521 98.5812 181.723 100.041 180.295C103.196 182.73 107.07 184.047 111.055 184.041H162.336C166.259 184.084 170.052 182.63 172.941 179.975C175.868 177.209 177.811 173.564 178.475 169.592L185.042 133.244C185.142 132.709 185.194 132.167 185.198 131.623C185.03 128.304 183.845 125.116 181.805 122.493C179.5 119.293 176.068 117.087 172.2 116.32C171.37 116.163 170.526 116.082 169.681 116.078H145.088V95.4689C145.262 90.9889 144.213 86.546 142.054 82.6169C139.894 78.6877 136.706 75.4207 132.831 73.1662C130.33 71.7831 127.529 71.0306 124.672 70.9741C121.824 70.908 119.038 71.8033 116.761 73.5157C112.844 76.5243 110.582 82.046 111.935 90.2872C111.951 90.3793 111.97 90.4715 111.993 90.5604C115.136 106.018 108.364 110.956 102.934 114.917L102.922 114.925Z" fill="#86A9C5"/>
<path d="M193.855 243.026C200.204 249.221 207.999 253.734 216.533 256.156C216.533 256.156 208.441 292.632 206.852 294.22C205.264 295.809 203.942 295.809 203.942 295.809C203.942 295.809 201.573 295.366 200.498 294.22C199.423 293.074 203.942 263.365 203.942 263.365C203.63 262.349 202.927 261.499 201.988 261.001C201.049 260.503 199.951 260.398 198.935 260.709C198.439 260.862 197.978 261.109 197.575 261.437C197.575 261.437 183.024 284.689 181.436 286.278C179.847 287.866 177.769 286.278 177.769 286.278C177.769 286.278 176.185 285.236 176.67 283.101C177.156 280.966 193.855 243.026 193.855 243.026Z" fill="#0985CE"/>
<path d="M231.128 190.1L227.166 198.532C226.878 199.147 226.439 199.678 225.889 200.077C225.34 200.475 224.698 200.727 224.024 200.809L214.811 201.966L221.6 208.336C222.092 208.798 222.459 209.377 222.667 210.019C222.875 210.661 222.918 211.345 222.791 212.008L221.044 221.149L229.199 216.66C229.798 216.331 230.47 216.16 231.153 216.164C231.836 216.168 232.506 216.346 233.101 216.682L241.218 221.149L239.467 212.008C239.336 211.318 239.388 210.605 239.619 209.941C239.849 209.278 240.249 208.686 240.78 208.225L247.451 201.966L238.238 200.809C237.506 200.719 236.812 200.429 236.233 199.972C235.654 199.514 235.213 198.906 234.956 198.214L231.144 190.084L231.128 190.1Z" fill="#ADE7FF"/>
<path d="M102.398 169.16C102.425 170.046 102.644 170.916 103.042 171.709C103.439 172.502 104.004 173.199 104.698 173.751C106.485 175.226 108.735 176.023 111.052 176.003H162.336C164.257 176.034 166.118 175.332 167.54 174.04C169.168 172.471 170.241 170.414 170.596 168.181L177.16 131.839V131.63C177.02 130.044 176.407 128.536 175.4 127.303C174.306 125.727 172.659 124.621 170.787 124.205C170.421 124.145 170.051 124.118 169.681 124.122H141.069C140.003 124.122 138.981 123.699 138.227 122.945C137.473 122.192 137.05 121.169 137.05 120.104V95.4753C137.222 92.4452 136.566 89.4253 135.154 86.7391C133.741 84.0528 131.625 81.8013 129.031 80.2256C127.691 79.4604 126.186 79.031 124.644 78.9738C123.566 78.9317 122.506 79.2491 121.629 79.8761C119.935 81.1755 119.046 84.1047 119.849 88.9846C124.004 109.412 114.933 116.05 107.655 121.375L107.634 121.39C104.809 123.446 102.398 125.203 102.398 127.312V169.16Z" fill="#ADE7FF"/>
<path d="M73.1281 127.535V174.491H94.3729V127.535H73.1281Z" fill="#ADE7FF"/>
<path d="M182.062 237.034C164.955 252.287 148.32 259.491 126.143 265.278C125.453 265.456 124.729 265.449 124.043 265.255C92.8506 257.086 65.2713 238.752 45.6659 213.152C25.8061 187.366 14.9914 155.758 14.8933 123.211V52.0962C14.8932 51.1562 15.2224 50.2459 15.8237 49.5233C16.425 48.8007 17.2603 48.3116 18.1847 48.1408L124.037 17.6414C124.776 17.4297 125.56 17.4363 126.296 17.6605L232.462 48.2552C233.298 48.4946 234.033 48.9995 234.556 49.6936C235.079 50.3877 235.363 51.2333 235.363 52.1026H235.382V123.211C235.385 128.773 235.066 134.33 234.429 139.855C233.98 143.708 233.382 147.531 232.637 151.324C236.786 151.437 240.908 152.033 244.919 153.1C245.913 148.294 246.694 143.445 247.264 138.553C247.99 132.263 248.354 125.936 248.354 119.605V37.4406L125.136 1.9342L1.9342 37.4406V119.605C2.04047 156.631 14.3378 192.592 36.9259 221.93C59.0185 250.797 90.0324 271.551 125.142 280.966C135.434 278.201 145.435 274.45 155.006 269.764C164.494 265.114 173.509 259.557 181.925 253.17L187.755 235.976C187.12 235.086 186.505 234.178 185.912 233.25L182.062 237.034Z" fill="#6F899E"/>
<path d="M193.855 243.026C200.204 249.221 207.999 253.734 216.533 256.156C216.533 256.156 208.441 292.632 206.852 294.22C205.264 295.809 203.942 295.809 203.942 295.809C203.942 295.809 201.573 295.366 200.498 294.22C199.423 293.074 203.942 263.365 203.942 263.365C203.63 262.349 202.927 261.499 201.988 261.001C201.049 260.503 199.951 260.398 198.935 260.709C198.439 260.862 197.978 261.109 197.575 261.437C197.575 261.437 183.024 284.689 181.436 286.278C179.847 287.866 177.769 286.278 177.769 286.278C177.769 286.278 176.185 285.236 176.67 283.101C177.156 280.966 193.855 243.026 193.855 243.026Z" fill="#0985CE"/>
<path d="M271.657 241.103C265.828 247.789 258.422 252.916 250.112 256.018C250.112 256.018 261.117 291.723 262.828 293.178C264.54 294.634 265.857 294.527 265.857 294.527C265.857 294.527 268.183 293.895 269.162 292.666C270.141 291.437 263.242 262.189 263.242 262.189C263.471 261.151 264.103 260.247 264.999 259.675C265.895 259.103 266.981 258.91 268.019 259.138C268.525 259.251 269.005 259.46 269.433 259.754C269.433 259.754 285.81 281.758 287.522 283.213C289.233 284.668 291.176 282.918 291.176 282.918C291.176 282.918 292.671 281.751 292.016 279.662C291.36 277.573 271.657 241.103 271.657 241.103Z" fill="#0985CE"/>
<path d="M107.634 121.39C104.809 123.446 102.398 125.203 102.398 127.312V169.16C102.425 170.046 102.644 170.916 103.042 171.709C103.439 172.502 104.004 173.199 104.698 173.751C106.485 175.226 108.735 176.023 111.052 176.003H162.336C164.257 176.034 166.118 175.332 167.54 174.04C169.168 172.471 170.241 170.414 170.596 168.181L177.16 131.839V131.63C177.02 130.044 176.407 128.536 175.4 127.303C174.306 125.727 172.659 124.621 170.787 124.205C170.421 124.145 170.051 124.118 169.681 124.122H141.069C140.003 124.122 138.981 123.699 138.227 122.945C137.473 122.192 137.05 121.169 137.05 120.104V95.4753C137.222 92.4452 136.566 89.4253 135.154 86.7391C133.741 84.0528 131.625 81.8013 129.031 80.2256C127.691 79.4604 126.186 79.031 124.644 78.9738C123.566 78.9317 122.506 79.2491 121.629 79.8761C119.935 81.1755 119.046 84.1047 119.849 88.9846C124.004 109.412 114.933 116.05 107.655 121.375M107.634 121.39L107.655 121.375M107.634 121.39C107.641 121.385 107.648 121.38 107.655 121.375M97.0606 119.9C98.8138 118.019 100.781 116.349 102.922 114.925L102.934 114.917C108.364 110.956 115.136 106.018 111.993 90.5604C111.97 90.4715 111.951 90.3793 111.935 90.2872C110.582 82.046 112.844 76.5243 116.761 73.5157C119.038 71.8033 121.824 70.908 124.672 70.9741C127.529 71.0306 130.33 71.7831 132.831 73.1662C136.706 75.4207 139.894 78.6877 142.054 82.6169C144.213 86.546 145.262 90.9889 145.088 95.4689V116.078H169.681C170.526 116.082 171.37 116.163 172.2 116.32C176.068 117.087 179.5 119.293 181.805 122.493C183.845 125.116 185.03 128.304 185.198 131.623C185.194 132.167 185.142 132.709 185.042 133.244L178.475 169.592C177.811 173.564 175.868 177.209 172.941 179.975C170.052 182.63 166.259 184.084 162.336 184.041H111.055C107.07 184.047 103.196 182.73 100.041 180.295C98.5812 181.723 96.6206 182.521 94.5794 182.519H72.8962C71.8721 182.519 70.8581 182.316 69.9126 181.923C68.9672 181.529 68.1089 180.952 67.3872 180.226L67.3713 180.21C66.6447 179.488 66.068 178.63 65.6743 177.684C65.2807 176.739 65.0778 175.725 65.0775 174.701V127.315C65.0768 126.289 65.2791 125.272 65.6727 124.324C66.0664 123.376 66.6437 122.515 67.3713 121.791C68.0948 121.063 68.9546 120.486 69.9015 120.091C70.8485 119.696 71.8639 119.492 72.8898 119.49H94.573C95.4166 119.489 96.2547 119.625 97.0543 119.894L97.0606 119.9ZM220.86 193.124L227.5 178.99C227.822 178.3 228.334 177.716 228.977 177.307C229.619 176.899 230.365 176.681 231.126 176.681C231.888 176.681 232.633 176.899 233.276 177.307C233.918 177.716 234.43 178.3 234.753 178.99L241.396 193.124L256.909 195.075C257.666 195.167 258.38 195.473 258.969 195.956C259.557 196.44 259.996 197.081 260.233 197.805C260.47 198.529 260.496 199.306 260.307 200.044C260.119 200.782 259.723 201.451 259.168 201.972L247.759 212.672L250.701 228.033C250.846 228.782 250.775 229.556 250.496 230.265C250.217 230.974 249.741 231.589 249.125 232.038C248.509 232.487 247.778 232.752 247.018 232.8C246.257 232.849 245.498 232.68 244.83 232.313L231.128 224.767L217.425 232.313C216.758 232.679 216 232.847 215.241 232.799C214.481 232.751 213.751 232.487 213.136 232.04C212.52 231.592 212.045 230.979 211.765 230.271C211.485 229.563 211.412 228.79 211.554 228.043L214.493 212.679L203.272 202.153C202.666 201.653 202.221 200.986 201.991 200.235C201.761 199.485 201.756 198.683 201.976 197.929C202.197 197.176 202.634 196.503 203.233 195.995C203.832 195.488 204.567 195.166 205.346 195.072L220.86 193.124ZM231.128 190.1L227.166 198.532C226.878 199.147 226.439 199.678 225.889 200.077C225.34 200.475 224.698 200.727 224.024 200.809L214.811 201.966L221.6 208.336C222.092 208.798 222.459 209.377 222.667 210.019C222.875 210.661 222.918 211.345 222.791 212.008L221.044 221.149L229.199 216.66C229.798 216.331 230.47 216.16 231.153 216.164C231.836 216.168 232.506 216.346 233.101 216.682L241.218 221.149L239.467 212.008C239.336 211.318 239.388 210.605 239.619 209.941C239.849 209.278 240.249 208.686 240.78 208.225L247.451 201.966L238.238 200.809C237.506 200.719 236.812 200.429 236.233 199.972C235.654 199.514 235.213 198.906 234.956 198.214L231.144 190.084L231.128 190.1ZM231.128 159.343C220.624 159.34 210.444 162.979 202.322 169.641C194.201 176.303 188.641 185.575 186.589 195.876C184.538 206.178 186.122 216.873 191.072 226.137C196.022 235.402 204.032 242.663 213.736 246.684C223.44 250.705 234.238 251.237 244.29 248.188C254.342 245.14 263.026 238.7 268.862 229.967C274.698 221.233 277.325 210.746 276.296 200.293C275.266 189.839 270.644 180.066 263.216 172.639C259.007 168.418 254.005 165.071 248.498 162.789C242.992 160.508 237.088 159.336 231.128 159.343ZM193.855 243.026C200.204 249.221 207.999 253.734 216.533 256.156C216.533 256.156 208.441 292.632 206.852 294.22C205.264 295.809 203.942 295.809 203.942 295.809C203.942 295.809 201.573 295.366 200.498 294.22C199.423 293.074 203.942 263.365 203.942 263.365C203.63 262.349 202.927 261.499 201.988 261.001C201.049 260.503 199.951 260.398 198.935 260.709C198.439 260.862 197.978 261.109 197.575 261.437C197.575 261.437 183.024 284.689 181.436 286.278C179.847 287.866 177.769 286.278 177.769 286.278C177.769 286.278 176.185 285.236 176.67 283.101C177.156 280.966 193.855 243.026 193.855 243.026ZM224.354 151.731C225.25 147.507 225.948 143.245 226.448 138.943C227.051 133.721 227.353 128.468 227.353 123.211V55.0985L125.136 25.6443L22.9311 55.0985V123.211C23.0201 153.979 33.2383 183.862 52.0073 208.244C70.328 232.182 96.0332 249.41 125.139 257.256C146.357 251.549 165.884 240.805 182.062 225.937C178.781 218.332 177.311 210.07 177.769 201.8C178.227 193.531 180.601 185.481 184.701 178.286C188.802 171.091 194.519 164.947 201.4 160.338C208.282 155.73 216.14 152.783 224.354 151.731ZM182.062 237.034C164.955 252.287 148.32 259.491 126.143 265.278C125.453 265.456 124.729 265.449 124.043 265.255C92.8506 257.086 65.2713 238.752 45.6659 213.152C25.8061 187.366 14.9914 155.758 14.8933 123.211V52.0962C14.8932 51.1562 15.2224 50.2459 15.8237 49.5233C16.425 48.8007 17.2603 48.3116 18.1847 48.1408L124.037 17.6414C124.776 17.4297 125.56 17.4363 126.296 17.6605L232.462 48.2552C233.298 48.4946 234.033 48.9995 234.556 49.6936C235.079 50.3877 235.363 51.2333 235.363 52.1026H235.382V123.211C235.385 128.773 235.066 134.33 234.429 139.855C233.98 143.708 233.382 147.531 232.637 151.324C236.786 151.437 240.908 152.033 244.919 153.1C245.913 148.294 246.694 143.445 247.264 138.553C247.99 132.263 248.354 125.936 248.354 119.605V37.4406L125.136 1.9342L1.9342 37.4406V119.605C2.04047 156.631 14.3378 192.592 36.9259 221.93C59.0185 250.797 90.0324 271.551 125.142 280.966C135.434 278.201 145.435 274.45 155.006 269.764C164.494 265.114 173.509 259.557 181.925 253.17L187.755 235.976C187.12 235.086 186.505 234.178 185.912 233.25L182.062 237.034ZM73.1281 127.535V174.491H94.3729V127.535H73.1281ZM271.657 241.103C265.828 247.789 258.422 252.916 250.112 256.018C250.112 256.018 261.117 291.723 262.828 293.178C264.54 294.634 265.857 294.527 265.857 294.527C265.857 294.527 268.183 293.895 269.162 292.666C270.141 291.437 263.242 262.189 263.242 262.189C263.471 261.151 264.103 260.247 264.999 259.675C265.895 259.103 266.981 258.91 268.019 259.138C268.525 259.251 269.005 259.46 269.433 259.754C269.433 259.754 285.81 281.758 287.522 283.213C289.233 284.668 291.176 282.918 291.176 282.918C291.176 282.918 292.671 281.751 292.016 279.662C291.36 277.573 271.657 241.103 271.657 241.103Z" stroke="black" stroke-width="2"/>
</svg>
